<svg viewBox="1132.5191 712.6264 352.9618 64.7472" width="5000" height="917.1984050398656" xmlns="http://www.w3.org/2000/svg" xmlns:xlink="http://www.w3.org/1999/xlink" preserveAspectRatio="none"><defs></defs><style>.aIptOCySncolors-0 {fill:#0F766E;fill-opacity:1;}.aIptOCySncolors-1 {fill:#A855F7;fill-opacity:1;}.atBXipXk0bfillColor {fill:#000000;fill-opacity:1;}.companyName {fill:#000000;fill-opacity:1;}.icon3-str {stroke:#2F90B0;stroke-opacity:1;}.shapeStroke-str {stroke:#000000;stroke-opacity:1;}</style><defs>
      <filter
        x="1132.5191"
        y="712.6264"
        width="352.9618"
        height="64.7472"
        id="global"
        filterUnits="userSpaceOnUse"
        primitiveUnits="userSpaceOnUse"
        color-interpolation-filters="sRGB">
        <feColorMatrix
                        type="matrix"
                        values="0.3333 0.3333 0.3333 0 0 0.3333 0.3333 0.3333 0 0 0.3333 0.3333 0.3333 0 0 0 0 0 1 0"/>
      </filter></defs><g filter="url(#global)"><g opacity="1" transform="rotate(0 1132.5191 722.1016)">
<svg width="45.8077" height="45.7968" x="1132.5191" y="722.1016" version="1.1" preserveAspectRatio="none" viewBox="20.41046714782715 20.56975746154785 159.11981201171875 159.08164978027344">
  <g transform="matrix(1 0 0 -1 0 200.22116470336914)" ><g><path d="M99.371 61.77c-2.679 2.679-6.943 2.829-9.422.622l-.234-.221L67.944 40.4a7.112 7.112 0 0 1 9.8-10.302l.257.245 21.528 21.528c2.679 2.679 2.608 7.134-.158 9.899zm23.898 56.381l-.39.446c-12.65 14.541-34.405 15.255-47.585 2.064l-.405-.412-43.605-43.606a6.815 6.815 0 0 1 9.385-9.881l.254.242 43.606 43.606c7.882 7.882 21.32 7.343 28.798-2.046 5.925-7.333 4.919-18.34-1.687-25.293l-.359-.369-1.911-1.911c-2.627-2.627-2.608-6.946.042-9.597 2.568-2.568 6.701-2.666 9.345-.281l.251.239 1.672 1.672c12.281 12.279 13.74 32.11 2.589 45.127zm15.638 19.735c-6.929 6.929-15.305 11.932-24.65 14.533-3.715.914-7.442-1.323-8.341-5.174l-.078-.378-.002-.48c-.476-3.241 1.503-6.248 4.653-7.307l.355-.11c7.428-2.129 14.128-6.419 19.621-12.394 15.367-17.274 13.768-43.553-2.391-59.738l-.494-.487-34.244-34.243a6.758 6.758 0 0 1 9.305-9.797l.252.24 34.244 34.244c22.401 22.401 23.748 58.631 1.77 81.091zm-48.7 8.868c-.455 4.254-4.464 6.838-8.726 5.402-8.673-2.315-16.696-7.046-23.431-13.554l-.743-.73-34.936-34.936a6.66 6.66 0 0 1 9.162-9.663l.257.244 34.936 34.936c5.223 5.223 11.385 9.031 18.486 10.951 3.314.959 5.454 4.042 4.995 7.35zm88.676-37.93c-.489 3.24-3.424 5.384-6.639 5.122l-.345-.037-1.911-.463c-3.107-.693-4.761-3.313-4.496-6.427 2.515-19.345-3.785-38.618-17.346-52.579l-.651-.661L131 37.284a6.829 6.829 0 0 1 9.401-9.898l.255.242 16.495 16.495c16.858 16.86 24.801 40.735 21.732 64.701zm-24.027 48.308c-29.834 30.306-80.243 29.723-110.892.065l-.923-.908-15.328-15.328a6.937 6.937 0 0 1-.121-9.687l.115-.118a6.6 6.6 0 0 1 9.079-.241l.254.241 15.805 15.805c25.3 25.3 67.589 25.974 92.462.623 4.305-4.783 8.373-10.282 11.246-16.019 1.676-3.108 5.5-4.545 8.605-3.354 3.582 1.669 5.25 5.729 3.574 9.314-3.351 7.172-8.136 13.867-13.876 19.607z" data-color="1" class="aIptOCySncolors-0"></path><path d="M100.629 100.74c2.766-2.766 2.875-7.182.242-9.814L54.117 44.171A7.112 7.112 0 0 0 44.06 54.228l46.754 46.754c2.633 2.632 7.049 2.523 9.815-.242z" data-color="2" class="aIptOCySncolors-1"></path><path opacity=".35" d="M130.464 126.577c-5.493 5.975-12.193 10.266-19.621 12.394-3.355.946-5.501 4.056-5.008 7.416l.002.48c.736 4.081 4.585 6.496 8.419 5.552 9.345-2.601 17.721-7.604 24.65-14.533 21.979-22.46 20.631-58.69-1.77-81.091l-34.243-34.244a6.758 6.758 0 0 0-9.557 9.557l34.244 34.244c16.618 16.14 18.406 42.776 2.884 60.225z" data-color="2" class="aIptOCySncolors-1"></path><path opacity=".35" d="M90.207 146.754c.459-3.308-1.681-6.39-4.995-7.35-7.101-1.92-13.263-5.729-18.486-10.951L31.789 93.516a6.66 6.66 0 1 0-9.419 9.419l34.936 34.936c6.885 6.885 15.18 11.884 24.174 14.285 4.263 1.436 8.271-1.148 8.727-5.402z" data-color="2" class="aIptOCySncolors-1"></path><path opacity=".7" d="M99.371 61.77c2.766-2.766 2.836-7.22.157-9.899L78.001 30.343A7.112 7.112 0 0 0 67.944 40.4l21.771 21.771c2.436 2.436 6.891 2.365 9.656-.401z" data-color="2" class="aIptOCySncolors-1"></path><path opacity=".7" d="M122.879 118.597c11.573-13.006 10.223-33.153-2.198-45.573l-1.672-1.672c-2.627-2.627-6.946-2.608-9.597.042-2.651 2.651-2.67 6.969-.042 9.597l1.911 1.911c6.927 6.927 8.077 18.198 2.046 25.661-7.479 9.39-20.916 9.929-28.798 2.046L40.923 67.004a6.815 6.815 0 0 0-9.639 0 6.815 6.815 0 0 0 0 9.639l43.606 43.606c13.135 13.616 35.209 13.039 47.989-1.652z" data-color="2" class="aIptOCySncolors-1"></path></g></g>
</svg>
</g><g opacity="1" transform="rotate(0 1205.1732 733.9456)">
<svg width="280.3077" height="21.4421" x="1205.1732" y="733.9456" version="1.1" preserveAspectRatio="none" viewBox="1.9922 -30.6055 405.1953 30.9962">
  <g transform="matrix(1 0 0 1 0 0)" class="companyName"><path id="id-D6z1nYkh19" d="M10.57 0.39L10.57 0.39Q6.52 0.39 4.26-2.54Q1.99-5.47 1.99-10.76L1.99-10.76Q1.99-16.07 4.29-19.03Q6.58-21.99 10.64-21.99L10.64-21.99Q14.90-21.99 17.13-18.85L17.13-18.85L17.36-18.85Q17.03-21.17 17.03-22.52L17.03-22.52L17.03-30.39L21.64-30.39L21.64 0L18.05 0L17.25-2.83L17.03-2.83Q14.82 0.39 10.57 0.39ZM11.80-3.32L11.80-3.32Q14.63-3.32 15.92-4.91Q17.21-6.50 17.25-10.08L17.25-10.08L17.25-10.72Q17.25-14.80 15.92-16.52Q14.59-18.24 11.76-18.24L11.76-18.24Q9.34-18.24 8.03-16.28Q6.72-14.32 6.72-10.68L6.72-10.68Q6.72-7.09 7.99-5.21Q9.26-3.32 11.80-3.32Z M37.64 0.39L37.64 0.39Q32.60 0.39 29.76-2.55Q26.91-5.49 26.91-10.64L26.91-10.64Q26.91-15.94 29.55-18.96Q32.19-21.99 36.80-21.99L36.80-21.99Q41.07-21.99 43.55-19.39Q46.04-16.80 46.04-12.25L46.04-12.25L46.04-9.77L31.64-9.77Q31.74-6.62 33.34-4.93Q34.94-3.24 37.85-3.24L37.85-3.24Q39.77-3.24 41.42-3.60Q43.07-3.96 44.96-4.80L44.96-4.80L44.96-1.07Q43.28-0.27 41.56 0.06Q39.84 0.39 37.64 0.39ZM36.80-18.52L36.80-18.52Q34.61-18.52 33.29-17.13Q31.97-15.74 31.72-13.09L31.72-13.09L41.52-13.09Q41.48-15.76 40.23-17.14Q38.98-18.52 36.80-18.52Z M62.21-21.99L62.21-21.99Q63.59-21.99 64.49-21.80L64.49-21.80L64.04-17.52Q63.07-17.75 62.01-17.75L62.01-17.75Q59.26-17.75 57.55-15.96Q55.84-14.16 55.84-11.29L55.84-11.29L55.84 0L51.25 0L51.25-21.60L54.84-21.60L55.45-17.79L55.68-17.79Q56.76-19.73 58.49-20.86Q60.21-21.99 62.21-21.99Z M95.84-7.75L95.84-7.75Q95.84-3.95 93.09-1.78Q90.33 0.39 85.49 0.39L85.49 0.39Q80.64 0.39 77.56-1.11L77.56-1.11L77.56-5.53Q79.51-4.61 81.71-4.08Q83.91-3.55 85.80-3.55L85.80-3.55Q88.57-3.55 89.89-4.61Q91.21-5.66 91.21-7.44L91.21-7.44Q91.21-9.04 90-10.16Q88.79-11.27 85-12.79L85-12.79Q81.09-14.38 79.49-16.41Q77.89-18.44 77.89-21.29L77.89-21.29Q77.89-24.86 80.43-26.91Q82.97-28.96 87.25-28.96L87.25-28.96Q91.35-28.96 95.41-27.17L95.41-27.17L93.93-23.36Q90.12-24.96 87.13-24.96L87.13-24.96Q84.86-24.96 83.69-23.97Q82.52-22.99 82.52-21.37L82.52-21.37Q82.52-20.25 82.99-19.46Q83.46-18.67 84.53-17.97Q85.61-17.27 88.40-16.11L88.40-16.11Q91.54-14.80 93.01-13.67Q94.47-12.54 95.16-11.11Q95.84-9.69 95.84-7.75Z M120.04-10.84L120.04-10.84Q120.04-5.55 117.32-2.58Q114.61 0.39 109.77 0.39L109.77 0.39Q106.74 0.39 104.41-0.98Q102.09-2.34 100.84-4.90Q99.59-7.46 99.59-10.84L99.59-10.84Q99.59-16.09 102.29-19.04Q104.98-21.99 109.88-21.99L109.88-21.99Q114.57-21.99 117.30-18.97Q120.04-15.96 120.04-10.84ZM104.32-10.84L104.32-10.84Q104.32-3.36 109.84-3.36L109.84-3.36Q115.31-3.36 115.31-10.84L115.31-10.84Q115.31-18.24 109.80-18.24L109.80-18.24Q106.91-18.24 105.62-16.33Q104.32-14.41 104.32-10.84Z M136.15-21.60L136.15-18.13L130.88-18.13L130.88 0L126.27 0L126.27-18.13L122.71-18.13L122.71-20.27L126.27-21.68L126.27-23.09Q126.27-26.91 128.07-28.76Q129.86-30.61 133.55-30.61L133.55-30.61Q135.98-30.61 138.32-29.80L138.32-29.80L137.11-26.33Q135.41-26.88 133.87-26.88L133.87-26.88Q132.30-26.88 131.59-25.91Q130.88-24.94 130.88-23.01L130.88-23.01L130.88-21.60L136.15-21.60Z M147.87-3.32L147.87-3.32Q149.55-3.32 151.23-3.85L151.23-3.85L151.23-0.39Q150.47-0.06 149.27 0.17Q148.07 0.39 146.78 0.39L146.78 0.39Q140.25 0.39 140.25-6.48L140.25-6.48L140.25-18.13L137.30-18.13L137.30-20.16L140.47-21.84L142.03-26.41L144.86-26.41L144.86-21.60L151.02-21.60L151.02-18.13L144.86-18.13L144.86-6.56Q144.86-4.90 145.69-4.11Q146.52-3.32 147.87-3.32Z M178.42 0L173.26 0L170.47-10.08Q169.96-11.68 168.63-17.52L168.63-17.52L168.46-17.52Q167.32-12.25 166.66-10.04L166.66-10.04L163.79 0L158.71 0L152.66-21.60L157.34-21.60L160.10-10.96Q161.04-7.01 161.43-4.20L161.43-4.20L161.54-4.20Q161.74-5.63 162.14-7.47Q162.54-9.32 162.83-10.23L162.83-10.23L166.11-21.60L171.15-21.60L174.34-10.23Q174.63-9.28 175.07-7.30Q175.51-5.33 175.59-4.24L175.59-4.24L175.74-4.24Q176.04-6.64 177.11-10.96L177.11-10.96L179.90-21.60L184.51-21.60L178.42 0Z M205.02 0L201.74 0L200.82-3.01L200.66-3.01Q199.10-1.04 197.52-0.32Q195.94 0.39 193.46 0.39L193.46 0.39Q190.27 0.39 188.49-1.33Q186.70-3.05 186.70-6.19L186.70-6.19Q186.70-9.53 189.18-11.23Q191.66-12.93 196.74-13.09L196.74-13.09L200.47-13.20L200.47-14.36Q200.47-16.43 199.50-17.45Q198.54-18.48 196.50-18.48L196.50-18.48Q194.84-18.48 193.32-17.99Q191.80-17.50 190.39-16.84L190.39-16.84L188.91-20.12Q190.66-21.04 192.75-21.51Q194.84-21.99 196.70-21.99L196.70-21.99Q200.82-21.99 202.92-20.20Q205.02-18.40 205.02-14.55L205.02-14.55L205.02 0ZM194.90-3.13L194.90-3.13Q197.40-3.13 198.92-4.52Q200.43-5.92 200.43-8.44L200.43-8.44L200.43-10.31L197.66-10.20Q194.41-10.08 192.94-9.11Q191.46-8.14 191.46-6.15L191.46-6.15Q191.46-4.71 192.32-3.92Q193.18-3.13 194.90-3.13Z M222.38-21.99L222.38-21.99Q223.77-21.99 224.67-21.80L224.67-21.80L224.22-17.52Q223.24-17.75 222.19-17.75L222.19-17.75Q219.43-17.75 217.72-15.96Q216.02-14.16 216.02-11.29L216.02-11.29L216.02 0L211.43 0L211.43-21.60L215.02-21.60L215.63-17.79L215.86-17.79Q216.93-19.73 218.66-20.86Q220.39-21.99 222.38-21.99Z M238.11 0.39L238.11 0.39Q233.07 0.39 230.22-2.55Q227.38-5.49 227.38-10.64L227.38-10.64Q227.38-15.94 230.02-18.96Q232.66-21.99 237.27-21.99L237.27-21.99Q241.54-21.99 244.02-19.39Q246.50-16.80 246.50-12.25L246.50-12.25L246.50-9.77L232.11-9.77Q232.21-6.62 233.81-4.93Q235.41-3.24 238.32-3.24L238.32-3.24Q240.23-3.24 241.88-3.60Q243.54-3.96 245.43-4.80L245.43-4.80L245.43-1.07Q243.75-0.27 242.03 0.06Q240.31 0.39 238.11 0.39ZM237.27-18.52L237.27-18.52Q235.08-18.52 233.76-17.13Q232.44-15.74 232.19-13.09L232.19-13.09L241.99-13.09Q241.95-15.76 240.70-17.14Q239.45-18.52 237.27-18.52Z M266.23-6.15L266.23-6.15Q266.23-2.99 263.93-1.30Q261.62 0.39 257.32 0.39L257.32 0.39Q253.01 0.39 250.39-0.92L250.39-0.92L250.39-4.88Q254.20-3.13 257.48-3.13L257.48-3.13Q261.72-3.13 261.72-5.68L261.72-5.68Q261.72-6.50 261.25-7.05Q260.78-7.60 259.71-8.18Q258.63-8.77 256.72-9.51L256.72-9.51Q252.99-10.96 251.67-12.40Q250.35-13.85 250.35-16.15L250.35-16.15Q250.35-18.93 252.59-20.46Q254.82-21.99 258.67-21.99L258.67-21.99Q262.48-21.99 265.88-20.45L265.88-20.45L264.39-16.99Q260.90-18.44 258.52-18.44L258.52-18.44Q254.88-18.44 254.88-16.37L254.88-16.37Q254.88-15.35 255.83-14.65Q256.78-13.95 259.96-12.71L259.96-12.71Q262.64-11.68 263.85-10.82Q265.06-9.96 265.64-8.84Q266.23-7.71 266.23-6.15Z M279.90 0.39L279.90 0.39Q275 0.39 272.45-2.47Q269.90-5.33 269.90-10.68L269.90-10.68Q269.90-16.13 272.57-19.06Q275.23-21.99 280.27-21.99L280.27-21.99Q283.69-21.99 286.43-20.72L286.43-20.72L285.04-17.03Q282.13-18.16 280.23-18.16L280.23-18.16Q274.63-18.16 274.63-10.72L274.63-10.72Q274.63-7.09 276.03-5.26Q277.42-3.44 280.12-3.44L280.12-3.44Q283.18-3.44 285.92-4.96L285.92-4.96L285.92-0.96Q284.69-0.23 283.29 0.08Q281.89 0.39 279.90 0.39Z M310-14.08L310 0L305.39 0L305.39-13.28Q305.39-15.78 304.38-17.01Q303.38-18.24 301.19-18.24L301.19-18.24Q298.30-18.24 296.94-16.51Q295.59-14.79 295.59-10.72L295.59-10.72L295.59 0L291.00 0L291.00-30.39L295.59-30.39L295.59-22.68Q295.59-20.82 295.35-18.71L295.35-18.71L295.64-18.71Q296.58-20.27 298.25-21.13Q299.92-21.99 302.15-21.99L302.15-21.99Q310-21.99 310-14.08L310-14.08Z M334.59-11.45L334.59 0L329.98 0L329.98-13.32Q329.98-15.80 329.04-17.02Q328.11-18.24 326.11-18.24L326.11-18.24Q323.46-18.24 322.22-16.51Q320.98-14.79 320.98-10.76L320.98-10.76L320.98 0L316.39 0L316.39-21.60L319.98-21.60L320.63-18.77L320.86-18.77Q321.76-20.31 323.47-21.15Q325.18-21.99 327.23-21.99L327.23-21.99Q332.21-21.99 333.83-18.59L333.83-18.59L334.14-18.59Q335.10-20.20 336.84-21.09Q338.57-21.99 340.82-21.99L340.82-21.99Q344.69-21.99 346.46-20.04Q348.22-18.09 348.22-14.08L348.22-14.08L348.22 0L343.63 0L343.63-13.32Q343.63-15.80 342.69-17.02Q341.74-18.24 339.75-18.24L339.75-18.24Q337.07-18.24 335.83-16.57Q334.59-14.90 334.59-11.45L334.59-11.45Z M359.22-21.60L359.22 0L354.63 0L354.63-21.60L359.22-21.60ZM354.36-27.32L354.36-27.32Q354.36-28.55 355.03-29.22Q355.70-29.88 356.95-29.88L356.95-29.88Q358.16-29.88 358.84-29.22Q359.51-28.55 359.51-27.32L359.51-27.32Q359.51-26.15 358.84-25.48Q358.16-24.80 356.95-24.80L356.95-24.80Q355.70-24.80 355.03-25.48Q354.36-26.15 354.36-27.32Z M375.21 0.39L375.21 0.39Q370.18 0.39 367.33-2.55Q364.49-5.49 364.49-10.64L364.49-10.64Q364.49-15.94 367.13-18.96Q369.77-21.99 374.38-21.99L374.38-21.99Q378.65-21.99 381.13-19.39Q383.61-16.80 383.61-12.25L383.61-12.25L383.61-9.77L369.22-9.77Q369.32-6.62 370.92-4.93Q372.52-3.24 375.43-3.24L375.43-3.24Q377.34-3.24 378.99-3.60Q380.64-3.96 382.54-4.80L382.54-4.80L382.54-1.07Q380.86-0.27 379.14 0.06Q377.42 0.39 375.21 0.39ZM374.38-18.52L374.38-18.52Q372.19-18.52 370.87-17.13Q369.55-15.74 369.30-13.09L369.30-13.09L379.10-13.09Q379.06-15.76 377.81-17.14Q376.56-18.52 374.38-18.52Z M396.11 0.39L396.11 0.39Q392.07 0.39 389.80-2.54Q387.54-5.47 387.54-10.76L387.54-10.76Q387.54-16.07 389.83-19.03Q392.13-21.99 396.19-21.99L396.19-21.99Q400.45-21.99 402.68-18.85L402.68-18.85L402.91-18.85Q402.58-21.17 402.58-22.52L402.58-22.52L402.58-30.39L407.19-30.39L407.19 0L403.59 0L402.79-2.83L402.58-2.83Q400.37 0.39 396.11 0.39ZM397.34-3.32L397.34-3.32Q400.18-3.32 401.46-4.91Q402.75-6.50 402.79-10.08L402.79-10.08L402.79-10.72Q402.79-14.80 401.46-16.52Q400.14-18.24 397.30-18.24L397.30-18.24Q394.88-18.24 393.57-16.28Q392.27-14.32 392.27-10.68L392.27-10.68Q392.27-7.09 393.54-5.21Q394.80-3.32 397.34-3.32Z"/></g>
</svg>
</g><g opacity="1" transform="rotate(0 1189.3812 712.6264)">
<svg width="3.1584" height="64.7472" x="1189.3812" y="712.6264" version="1.1" preserveAspectRatio="none" viewBox="0 0 3.1584 64.7472">
  <rect x="0" y="0" width="3.1584" height="64.7472" class="atBXipXk0bfillColor shapeStroke-str" style="stroke-width:0;" rx="0px" ry="0px" />
</svg>
</g></g></svg>